<?xml version="1.0" encoding="utf-8"?>
<!-- Generator: Adobe Illustrator 18.0.0, SVG Export Plug-In . SVG Version: 6.00 Build 0)  -->
<!DOCTYPE svg PUBLIC "-//W3C//DTD SVG 1.0//EN" "http://www.w3.org/TR/2001/REC-SVG-20010904/DTD/svg10.dtd">
<svg version="1.0" xmlns="http://www.w3.org/2000/svg" xmlns:xlink="http://www.w3.org/1999/xlink" x="0px" y="0px" width="242px"
	 height="18px" viewBox="0 0 242 18" style="enable-background:new 0 0 242 18;" xml:space="preserve">
<style type="text/css">
	.st0{display:none;}
	.st1{display:inline;}
	.st2{fill:#231F20;}
	.st3{display:inline;fill:#231F20;}
	.st4{fill:#D6D6D6;}
	.st5{fill:none;stroke:#231F20;stroke-width:0.2835;stroke-miterlimit:10;stroke-dasharray:1.0006,1.0006;}
</style>
<g id="dark_1_" class="st0">
	<g class="st1">
		<path class="st2" d="M236.8,2.1c-0.9-0.6-2.1-0.9-3.6-0.9c-1.9,0-3.4,0.4-4.3,1.3c-0.9,0.9-1.4,2-1.6,3.4l3.8,0.5
			c0.1-0.8,0.3-1.3,0.7-1.7c0.4-0.4,0.8-0.6,1.4-0.6c0.5,0,0.9,0.1,1.2,0.4c0.3,0.3,0.4,0.6,0.4,1c0,0.5-0.3,0.9-0.9,1.4
			c-1.1,0.9-1.8,1.5-2.1,1.9c-0.3,0.3-0.5,0.7-0.7,1.1c-0.1,0.4-0.2,0.9-0.2,1.6v0.2h3.7c0-0.5,0.1-0.9,0.3-1.2
			c0.2-0.4,0.7-0.8,1.4-1.4c1-0.8,1.7-1.5,2-2c0.3-0.5,0.5-1.1,0.5-1.6C238.7,4,238.1,3,236.8,2.1z"/>
		<circle class="st2" cx="232.8" cy="15.2" r="2"/>
	</g>
	<polygon class="st3" points="205,11.5 200.5,16 198,13.5 202.5,9 198,4.5 200.5,2 205,6.5 209.5,2 212,4.5 207.5,9 212,13.5 
		209.5,16 	"/>
	<g class="st1">
		<path class="st2" d="M172.2,16.7c-0.4-0.3-0.8-0.6-1.3-0.9c-0.1-0.1-0.1-0.1-0.1-0.2c0.2-0.6,0.5-1.3,0.7-1.9c0-0.1,0-0.1,0-0.2
			c-0.2-0.3-0.4-0.6-0.6-0.8c-0.1-0.1-0.2-0.2-0.3-0.2c-0.7,0-1.3,0-2,0.1c-0.1,0-0.2,0-0.2-0.1c-0.1-0.5-0.3-0.9-0.4-1.4
			c0-0.1,0-0.1,0.1-0.2c0.6-0.4,1.1-0.7,1.7-1.1c0.1-0.1,0.1-0.1,0.1-0.3c0-0.3,0-0.7,0-1c0-0.1,0-0.2-0.1-0.2
			c-0.5-0.4-1.1-0.7-1.6-1.1C168,7.1,168,7,168,6.8c0.1-0.4,0.3-0.8,0.4-1.3c0-0.1,0.1-0.1,0.2-0.1c0.7,0,1.3,0,2,0.1
			c0.1,0,0.2,0,0.2-0.1c0.2-0.3,0.5-0.6,0.7-0.9c0.1-0.1,0.1-0.1,0-0.2c-0.2-0.6-0.4-1.2-0.7-1.9c0-0.1,0-0.2,0.1-0.2
			c0.4-0.3,0.8-0.6,1.3-0.9c0.4,0.3,0.8,0.6,1.2,0.9c0.2,0.1,0.4,0.3,0.6,0.4c0,0,0.1,0,0.2,0c0.4-0.1,0.8-0.2,1.2-0.4
			c0.1,0,0.1-0.1,0.2-0.2c0.2-0.6,0.4-1.3,0.6-1.9c0-0.1,0.1-0.2,0.2-0.2c0.5,0,1,0,1.5,0c0,0,0.1,0.1,0.1,0.1
			c0.2,0.6,0.4,1.3,0.6,1.9c0,0.1,0.1,0.2,0.2,0.2c0.4,0.1,0.7,0.2,1.1,0.3c0.1,0,0.2,0,0.3,0c0.5-0.4,1.1-0.8,1.6-1.2
			c0,0,0.2,0,0.2,0c0.4,0.3,0.8,0.6,1.2,0.9c0.1,0.1,0.1,0.1,0.1,0.3c-0.2,0.6-0.4,1.2-0.7,1.8c0,0.1,0,0.2,0,0.3
			c0.2,0.2,0.4,0.5,0.6,0.8c0.1,0.2,0.2,0.2,0.4,0.2c0.6,0,1.2,0,1.8-0.1c0.2,0,0.2,0,0.3,0.2c0.1,0.4,0.3,0.9,0.4,1.3
			c0,0.1,0,0.2-0.1,0.2c-0.6,0.4-1.1,0.7-1.7,1.1c-0.1,0.1-0.1,0.1-0.1,0.2c0,0.3,0,0.7,0,1c0,0.1,0.1,0.2,0.1,0.2
			c0.5,0.4,1.1,0.7,1.6,1.1c0.1,0.1,0.1,0.1,0.1,0.2c-0.1,0.4-0.3,0.9-0.4,1.3c0,0.1-0.1,0.1-0.2,0.1c-0.7,0-1.3,0-2-0.1
			c-0.1,0-0.2,0-0.2,0.1c-0.2,0.3-0.5,0.6-0.7,1c-0.1,0.1-0.1,0.1,0,0.2c0.2,0.6,0.4,1.2,0.7,1.8c0.1,0.1,0,0.2-0.1,0.3
			c-0.4,0.3-0.8,0.5-1.1,0.8c-0.1,0.1-0.2,0.1-0.3,0c-0.5-0.4-1.1-0.8-1.6-1.2c-0.1-0.1-0.2-0.1-0.3,0c-0.4,0.1-0.7,0.2-1.1,0.4
			c-0.1,0-0.1,0.1-0.1,0.1c-0.2,0.6-0.4,1.3-0.6,1.9c0,0.1-0.1,0.2-0.2,0.2c-0.5,0-1,0-1.5,0c-0.1,0-0.1,0-0.2-0.1
			c-0.2-0.6-0.4-1.3-0.6-1.9c0-0.1-0.1-0.1-0.2-0.2c-0.3-0.1-0.7-0.2-1-0.3c-0.1,0-0.2,0-0.3,0c-0.5,0.4-1,0.8-1.6,1.2
			C172.3,16.7,172.3,16.7,172.2,16.7z M172.8,9c0,2.4,1.9,4.2,4.2,4.3c2.3,0,4.2-1.9,4.3-4.2c0-2.3-1.9-4.3-4.2-4.3
			C174.7,4.7,172.8,6.6,172.8,9z"/>
	</g>
	<g class="st1">
		<path class="st2" d="M149,5.5l1.5-1.9c1-1.2,1.5-1.6,2.6-1.6c0.2,0,0.4,0,0.6,0c0.8,0.1,2.1,1,2.3,3.2v0.9c-0.2,2.7-2.6,5.8-7,9.3
			c-4.4-3.5-6.8-6.6-7-9.3V5.3c0.2-2.2,1.5-3.1,2.3-3.2c0.2,0,0.4,0,0.6,0c1.2,0,1.7,0.4,2.6,1.6L149,5.5 M153.1,0
			c-2,0-3,0.9-4.1,2.3c-1.1-1.4-2.1-2.3-4.1-2.3c-0.3,0-0.5,0-0.8,0c-1.8,0.2-3.8,1.9-4.1,5.1v1.1c0.2,3.1,2.5,6.9,9,11.8
			c6.5-4.8,8.8-8.6,9-11.8V5.2c-0.2-3.2-2.3-4.9-4.1-5.1C153.7,0,153.4,0,153.1,0"/>
	</g>
	<g class="st1">
		<path class="st2" d="M125,0c-2,0-3,0.9-4.1,2.3c-1.1-1.4-2.1-2.3-4.1-2.3c-0.3,0-0.5,0-0.8,0c-1.7,0.2-3.8,1.9-4,5.1v1.1
			c0.2,3.1,2.4,6.9,8.9,11.8c0.7-0.5,1.4-1.1,2-1.6V15h-1.5c-0.2,0.2-0.4,0.3-0.6,0.5c-4.4-3.5-6.7-6.6-6.9-9.3V5.3
			c0.2-2.2,1.4-3.1,2.2-3.2c0.2,0,0.4,0,0.6,0c1.2,0,1.6,0.4,2.6,1.6l1.5,1.9l1.5-1.9c1-1.2,1.4-1.6,2.6-1.6c0.2,0,0.4,0,0.6,0
			c0.8,0.1,2.1,1,2.2,3.2v0.9l0,0l0.1,2.1h1.4c0.2-0.7,0.4-1.4,0.4-2.1V5.2c-0.2-3.2-2.3-4.9-4-5.1C125.5,0,125.2,0,125,0"/>
		<polyline class="st2" points="126.9,7.5 124.3,7.5 124.3,10.8 121.2,10.8 121.2,13.6 124.3,13.6 124.3,16.9 126.9,16.9 
			126.9,13.6 130,13.6 130,10.8 126.9,10.8 126.9,7.5 		"/>
	</g>
	<g class="st1">
		<path class="st2" d="M93.4,7V2h2v5H93.4 M88.5,8.9h8.9V2h0.8l1.9,1.8V16H86V2h2.5V8.9 M99,0H84v18h18V2.9L99,0"/>
	</g>
	<g class="st1">
		<path class="st2" d="M74,0l-2.9,2.4c-1.6-1.4-3.7-2.3-6.1-2.3c-5,0-9.1,4-9.1,8.9c0,4.9,4.1,8.9,9.1,8.9c3.9,0,7.3-2.5,8.5-5.9
			l-2.9-0.4c-1,2.1-3.1,3.5-5.6,3.5c-3.4,0-6.2-2.8-6.2-6.1c0-3.4,2.8-6.1,6.2-6.1c1.5,0,2.8,0.5,3.9,1.4l-3.1,2.6L74,8.1L74,0"/>
	</g>
	<g class="st1">
		<path class="st2" d="M31.7,16.6V7.8L37,3.4l5.3,4.4v8.8h-3v-5.4h-4.7v5.4H31.7 M37,0l-9,7.5l1.4,2l1-0.8V18h13.2V8.7l1,0.8l1.4-2
			l-3.3-2.7V0.3h-2.3v2.6L37,0"/>
	</g>
	<g class="st1">
		<polyline class="st2" points="15.5,2.3 6.8,9.5 3.6,6 0,9.6 0,9.6 6.7,16.3 18.1,4.9 15.5,2.3 		"/>
	</g>
</g>
<g id="light">
	<g>
		<path class="st4" d="M236.8,2.1c-0.9-0.6-2.1-0.9-3.6-0.9c-1.9,0-3.4,0.4-4.3,1.3c-0.9,0.9-1.4,2-1.6,3.4l3.8,0.5
			c0.1-0.8,0.3-1.3,0.7-1.7c0.4-0.4,0.8-0.6,1.4-0.6c0.5,0,0.9,0.1,1.2,0.4c0.3,0.3,0.4,0.6,0.4,1c0,0.5-0.3,0.9-0.9,1.4
			c-1.1,0.9-1.8,1.5-2.1,1.9c-0.3,0.3-0.5,0.7-0.7,1.1c-0.1,0.4-0.2,0.9-0.2,1.6v0.2h3.7c0-0.5,0.1-0.9,0.3-1.2
			c0.2-0.4,0.7-0.8,1.4-1.4c1-0.8,1.7-1.5,2-2c0.3-0.5,0.5-1.1,0.5-1.6C238.7,4,238.1,3,236.8,2.1z"/>
		<circle class="st4" cx="232.8" cy="15.2" r="2"/>
	</g>
	<polygon class="st4" points="205,11.5 200.5,16 198,13.5 202.5,9 198,4.5 200.5,2 205,6.5 209.5,2 212,4.5 207.5,9 212,13.5 
		209.5,16 	"/>
	<g>
		<path class="st4" d="M172.2,16.7c-0.4-0.3-0.8-0.6-1.3-0.9c-0.1-0.1-0.1-0.1-0.1-0.2c0.2-0.6,0.5-1.3,0.7-1.9c0-0.1,0-0.1,0-0.2
			c-0.2-0.3-0.4-0.6-0.6-0.8c-0.1-0.1-0.2-0.2-0.3-0.2c-0.7,0-1.3,0-2,0.1c-0.1,0-0.2,0-0.2-0.1c-0.1-0.5-0.3-0.9-0.4-1.4
			c0-0.1,0-0.1,0.1-0.2c0.6-0.4,1.1-0.7,1.7-1.1c0.1-0.1,0.1-0.1,0.1-0.3c0-0.3,0-0.7,0-1c0-0.1,0-0.2-0.1-0.2
			c-0.5-0.4-1.1-0.7-1.6-1.1C168,7.1,168,7,168,6.8c0.1-0.4,0.3-0.8,0.4-1.3c0-0.1,0.1-0.1,0.2-0.1c0.7,0,1.3,0,2,0.1
			c0.1,0,0.2,0,0.2-0.1c0.2-0.3,0.5-0.6,0.7-0.9c0.1-0.1,0.1-0.1,0-0.2c-0.2-0.6-0.4-1.2-0.7-1.9c0-0.1,0-0.2,0.1-0.2
			c0.4-0.3,0.8-0.6,1.3-0.9c0.4,0.3,0.8,0.6,1.2,0.9c0.2,0.1,0.4,0.3,0.6,0.4c0,0,0.1,0,0.2,0c0.4-0.1,0.8-0.2,1.2-0.4
			c0.1,0,0.1-0.1,0.2-0.2c0.2-0.6,0.4-1.3,0.6-1.9c0-0.1,0.1-0.2,0.2-0.2c0.5,0,1,0,1.5,0c0,0,0.1,0.1,0.1,0.1
			c0.2,0.6,0.4,1.3,0.6,1.9c0,0.1,0.1,0.2,0.2,0.2c0.4,0.1,0.7,0.2,1.1,0.3c0.1,0,0.2,0,0.3,0c0.5-0.4,1.1-0.8,1.6-1.2
			c0,0,0.2,0,0.2,0c0.4,0.3,0.8,0.6,1.2,0.9c0.1,0.1,0.1,0.1,0.1,0.3c-0.2,0.6-0.4,1.2-0.7,1.8c0,0.1,0,0.2,0,0.3
			c0.2,0.2,0.4,0.5,0.6,0.8c0.1,0.2,0.2,0.2,0.4,0.2c0.6,0,1.2,0,1.8-0.1c0.2,0,0.2,0,0.3,0.2c0.1,0.4,0.3,0.9,0.4,1.3
			c0,0.1,0,0.2-0.1,0.2c-0.6,0.4-1.1,0.7-1.7,1.1c-0.1,0.1-0.1,0.1-0.1,0.2c0,0.3,0,0.7,0,1c0,0.1,0.1,0.2,0.1,0.2
			c0.5,0.4,1.1,0.7,1.6,1.1c0.1,0.1,0.1,0.1,0.1,0.2c-0.1,0.4-0.3,0.9-0.4,1.3c0,0.1-0.1,0.1-0.2,0.1c-0.7,0-1.3,0-2-0.1
			c-0.1,0-0.2,0-0.2,0.1c-0.2,0.3-0.5,0.6-0.7,1c-0.1,0.1-0.1,0.1,0,0.2c0.2,0.6,0.4,1.2,0.7,1.8c0.1,0.1,0,0.2-0.1,0.3
			c-0.4,0.3-0.8,0.5-1.1,0.8c-0.1,0.1-0.2,0.1-0.3,0c-0.5-0.4-1.1-0.8-1.6-1.2c-0.1-0.1-0.2-0.1-0.3,0c-0.4,0.1-0.7,0.2-1.1,0.4
			c-0.1,0-0.1,0.1-0.1,0.1c-0.2,0.6-0.4,1.3-0.6,1.9c0,0.1-0.1,0.2-0.2,0.2c-0.5,0-1,0-1.5,0c-0.1,0-0.1,0-0.2-0.1
			c-0.2-0.6-0.4-1.3-0.6-1.9c0-0.1-0.1-0.1-0.2-0.2c-0.3-0.1-0.7-0.2-1-0.3c-0.1,0-0.2,0-0.3,0c-0.5,0.4-1,0.8-1.6,1.2
			C172.3,16.7,172.3,16.7,172.2,16.7z M172.8,9c0,2.4,1.9,4.2,4.2,4.3c2.3,0,4.2-1.9,4.3-4.2c0-2.3-1.9-4.3-4.2-4.3
			C174.7,4.7,172.8,6.6,172.8,9z"/>
	</g>
	<g>
		<path class="st4" d="M149,5.5l1.5-1.9c1-1.2,1.5-1.6,2.6-1.6c0.2,0,0.4,0,0.6,0c0.8,0.1,2.1,1,2.3,3.2v0.9c-0.2,2.7-2.6,5.8-7,9.3
			c-4.4-3.5-6.8-6.6-7-9.3V5.3c0.2-2.2,1.5-3.1,2.3-3.2c0.2,0,0.4,0,0.6,0c1.2,0,1.7,0.4,2.6,1.6L149,5.5 M153.1,0
			c-2,0-3,0.9-4.1,2.3c-1.1-1.4-2.1-2.3-4.1-2.3c-0.3,0-0.5,0-0.8,0c-1.8,0.2-3.8,1.9-4.1,5.1v1.1c0.2,3.1,2.5,6.9,9,11.8
			c6.5-4.8,8.8-8.6,9-11.8V5.2c-0.2-3.2-2.3-4.9-4.1-5.1C153.7,0,153.4,0,153.1,0"/>
	</g>
	<g>
		<path class="st4" d="M125,0c-2,0-3,0.9-4.1,2.3c-1.1-1.4-2.1-2.3-4.1-2.3c-0.3,0-0.5,0-0.8,0c-1.7,0.2-3.8,1.9-4,5.1v1.1
			c0.2,3.1,2.4,6.9,8.9,11.8c0.7-0.5,1.4-1.1,2-1.6V15h-1.5c-0.2,0.2-0.4,0.3-0.6,0.5c-4.4-3.5-6.7-6.6-6.9-9.3V5.3
			c0.2-2.2,1.4-3.1,2.2-3.2c0.2,0,0.4,0,0.6,0c1.2,0,1.6,0.4,2.6,1.6l1.5,1.9l1.5-1.9c1-1.2,1.4-1.6,2.6-1.6c0.2,0,0.4,0,0.6,0
			c0.8,0.1,2.1,1,2.2,3.2v0.9l0,0l0.1,2.1h1.4c0.2-0.7,0.4-1.4,0.4-2.1V5.2c-0.2-3.2-2.3-4.9-4-5.1C125.5,0,125.2,0,125,0"/>
		<polyline class="st4" points="126.9,7.5 124.3,7.5 124.3,10.8 121.2,10.8 121.2,13.6 124.3,13.6 124.3,16.9 126.9,16.9 
			126.9,13.6 130,13.6 130,10.8 126.9,10.8 126.9,7.5 		"/>
	</g>
	<g>
		<path class="st4" d="M93.4,7V2h2v5H93.4 M88.5,8.9h8.9V2h0.8l1.9,1.8V16H86V2h2.5V8.9 M99,0H84v18h18V2.9L99,0"/>
	</g>
	<g>
		<path class="st4" d="M74,0l-2.9,2.4c-1.6-1.4-3.7-2.3-6.1-2.3c-5,0-9.1,4-9.1,8.9c0,4.9,4.1,8.9,9.1,8.9c3.9,0,7.3-2.5,8.5-5.9
			l-2.9-0.4c-1,2.1-3.1,3.5-5.6,3.5c-3.4,0-6.2-2.8-6.2-6.1c0-3.4,2.8-6.1,6.2-6.1c1.5,0,2.8,0.5,3.9,1.4l-3.1,2.6L74,8.1L74,0"/>
	</g>
	<g>
		<path class="st4" d="M31.7,16.6V7.8L37,3.4l5.3,4.4v8.8h-3v-5.4h-4.7v5.4H31.7 M37,0l-9,7.5l1.4,2l1-0.8V18h13.2V8.7l1,0.8l1.4-2
			l-3.3-2.7V0.3h-2.3v2.6L37,0"/>
	</g>
	<g>
		<polyline class="st4" points="15.5,2.3 6.8,9.5 3.6,6 0,9.6 0,9.6 6.7,16.3 18.1,4.9 15.5,2.3 		"/>
	</g>
</g>
<g id="Layer_5" class="st0">
	<g class="st1">
		<rect x="-5" y="-5" class="st5" width="252" height="28"/>
		<line class="st5" x1="219" y1="23" x2="219" y2="-5"/>
		<line class="st5" x1="191" y1="23" x2="191" y2="-5"/>
		<line class="st5" x1="163" y1="23" x2="163" y2="-5"/>
		<line class="st5" x1="135" y1="23" x2="135" y2="-5"/>
		<line class="st5" x1="107" y1="23" x2="107" y2="-5"/>
		<line class="st5" x1="79" y1="23" x2="79" y2="-5"/>
		<line class="st5" x1="51" y1="23" x2="51" y2="-5"/>
		<line class="st5" x1="23" y1="23" x2="23" y2="-5"/>
	</g>
</g>
</svg>
