<?xml version="1.0" encoding="utf-8"?>
<!-- Generator: Adobe Illustrator 19.1.1, SVG Export Plug-In . SVG Version: 6.00 Build 0)  -->
<svg version="1.0" xmlns="http://www.w3.org/2000/svg" xmlns:xlink="http://www.w3.org/1999/xlink" x="0px" y="0px" width="252.1px"
	 height="18.1px" viewBox="0 0 252.1 18.1" style="enable-background:new 0 0 252.1 18.1;" xml:space="preserve">
<style type="text/css">
	.st0{display:none;}
	.st1{display:inline;}
	.st2{fill:#D6D6D6;}
</style>
<g id="buttons-dark">
	<g>
		<g>
			<path d="M155.3,5.7l1.5-1.8c1-1.2,1.5-1.5,2.6-1.5c0.2,0,0.4,0,0.6,0c0.8,0.1,2.1,1,2.3,3v0.9c-0.2,2.6-2.6,5.6-7.1,8.9
				c-4.5-3.3-6.8-6.3-7.1-8.9V5.5c0.2-2.1,1.5-2.9,2.3-3c0.2,0,0.4,0,0.6,0c1.2,0,1.7,0.4,2.6,1.5L155.3,5.7 M159.4,0.4
				c-2.1,0-3,0.9-4.2,2.2c-1.1-1.3-2.1-2.2-4.2-2.2c-0.3,0-0.5,0-0.8,0c-1.8,0.2-3.8,1.8-4.1,4.9v1c0.2,3,2.5,6.7,9.1,11.3
				c6.6-4.6,8.8-8.3,9.1-11.3v-1c-0.3-3.1-2.3-4.7-4.1-4.9C160,0.4,159.7,0.4,159.4,0.4"/>
		</g>
		<g>
			<path d="M96.9,7V2h2v5H96.9 M91.9,9h9V2h0.8l1.9,1.8v12.3H89.4V2h2.5V9 M102.5,0H87.4v18.1h18.1V3L102.5,0"/>
		</g>
		<g>
			<polyline points="216.2,4.6 213.8,7 211.4,4.6 209.4,6.7 211.8,9.1 209.4,11.5 211.4,13.5 213.8,11.1 216.2,13.5 218.3,11.5 
				215.9,9.1 218.3,6.7 216.2,4.6 			"/>
			<path d="M213.8,16.7c-2,0-4-0.8-5.4-2.2c-1.4-1.4-2.2-3.4-2.2-5.4c0-2,0.8-4,2.2-5.4c1.4-1.4,3.4-2.2,5.4-2.2c2,0,4,0.8,5.4,2.2
				h0c1.4,1.4,2.2,3.4,2.2,5.4c0,2-0.8,4-2.2,5.4C217.8,15.9,215.9,16.7,213.8,16.7 M213.8,0c-2.3,0-4.6,0.9-6.4,2.7
				c-3.5,3.5-3.5,9.3,0,12.8c1.8,1.8,4.1,2.7,6.4,2.7c2.3,0,4.6-0.9,6.4-2.7c3.5-3.5,3.5-9.3,0-12.8C218.5,0.9,216.1,0,213.8,0"/>
		</g>
		<g>
			<path d="M76.3,0.8l-2.6,2.2C72.3,1.8,70.3,1,68.2,1c-4.5,0-8.2,3.7-8.2,8.2c0,4.5,3.7,8.2,8.2,8.2c3.5,0,6.5-2.2,7.7-5.4
				l-2.6-0.4c-0.9,1.9-2.8,3.2-5.1,3.2c-3.1,0-5.6-2.5-5.6-5.6c0-3.1,2.5-5.6,5.6-5.6c1.3,0,2.5,0.5,3.5,1.2L69,7.2l7.3,1.1
				L76.3,0.8"/>
		</g>
		<g>
			<path d="M33.3,16.7V7.9l5.8-4.4l5.8,4.4v8.8h-3.3v-5.4h-5.1v5.4H33.3 M39.1,0l-9.8,7.5l1.5,2l1.1-0.8v9.3h14.5V8.8l1.1,0.8l1.5-2
				l-3.6-2.7V0.3h-2.6v2.6L39.1,0"/>
		</g>
		<g>
			<path d="M9.1,16.7c-2,0-4-0.8-5.4-2.2c-3-3-3-7.8,0-10.8C5.1,2.2,7,1.4,9.1,1.4s4,0.8,5.4,2.2c3,3,3,7.8,0,10.8
				C13,15.9,11.1,16.7,9.1,16.7 M9.1,0C6.7,0,4.4,0.9,2.7,2.7c-3.5,3.5-3.5,9.3,0,12.8c1.8,1.8,4.1,2.7,6.4,2.7s4.6-0.9,6.4-2.7
				c3.5-3.5,3.5-9.3,0-12.8C13.7,0.9,11.4,0,9.1,0"/>
			<polyline points="12.9,5.3 7.8,9.5 6,7.5 3.9,9.5 3.9,9.5 7.8,13.4 14.4,6.9 12.9,5.3 			"/>
		</g>
		<g>
			<path d="M129.9,0.4c-2.1,0-3,0.9-4.2,2.2c-1.1-1.3-2.1-2.2-4.2-2.2c-0.3,0-0.5,0-0.8,0c-1.8,0.2-3.8,1.8-4.1,4.9v1
				c0.2,3,2.5,6.7,9.1,11.3c0.8-0.5,1.4-1,2.1-1.5v-1.3h-1.5c-0.2,0.1-0.4,0.3-0.6,0.4c-4.5-3.3-6.8-6.3-7.1-8.9V5.5
				c0.2-2.1,1.5-2.9,2.3-3c0.2,0,0.4,0,0.6,0c1.2,0,1.7,0.4,2.6,1.5l1.5,1.8l1.5-1.8c1-1.2,1.5-1.5,2.6-1.5c0.2,0,0.4,0,0.6,0
				c0.8,0.1,2.1,1,2.3,3v0.9l0,0l0.1,2h1.4c0.3-0.7,0.4-1.4,0.4-2v-1c-0.3-3.1-2.3-4.7-4.1-4.9C130.4,0.4,130.2,0.4,129.9,0.4"/>
			<polyline points="131.9,7.7 129.2,7.7 129.2,10.8 126.1,10.8 126.1,13.5 129.2,13.5 129.2,16.7 131.9,16.7 131.9,13.5 
				135.1,13.5 135.1,10.8 131.9,10.8 131.9,7.7 			"/>
		</g>
		<g>
			<path d="M249.5,2.7c-1.8-1.8-4.1-2.7-6.4-2.7c-2.3,0-4.6,0.9-6.4,2.7c-3.5,3.5-3.5,9.3,0,12.8c1.8,1.8,4.1,2.7,6.4,2.7
				c2.3,0,4.6-0.9,6.4-2.7C253,11.9,253,6.2,249.5,2.7z M248.5,14.5c-1.4,1.4-3.4,2.2-5.4,2.2c-2,0-4-0.8-5.4-2.2c-3-3-3-7.8,0-10.8
				c1.4-1.4,3.4-2.2,5.4-2.2c2,0,4,0.8,5.4,2.2C251.5,6.6,251.5,11.5,248.5,14.5z"/>
			<path d="M245.7,4.4c-0.6-0.4-1.5-0.6-2.5-0.6c-1.3,0-2.3,0.3-2.9,0.9c-0.6,0.6-1,1.4-1.1,2.3l2.6,0.3c0.1-0.5,0.2-0.9,0.5-1.1
				c0.2-0.3,0.6-0.4,0.9-0.4c0.4,0,0.6,0.1,0.8,0.3c0.2,0.2,0.3,0.4,0.3,0.7c0,0.3-0.2,0.6-0.6,1c-0.7,0.6-1.2,1-1.4,1.3
				c-0.2,0.2-0.4,0.5-0.5,0.8c-0.1,0.3-0.2,0.6-0.2,1.1V11h2.5c0-0.3,0.1-0.6,0.2-0.9c0.1-0.3,0.5-0.6,1-1c0.7-0.5,1.1-1,1.4-1.4
				c0.2-0.4,0.3-0.7,0.3-1.1C247,5.7,246.5,5,245.7,4.4z"/>
			<circle cx="242.9" cy="13.3" r="1.4"/>
		</g>
		<g>
			<path d="M179.7,16.9c-0.4-0.3-0.9-0.6-1.3-0.9c-0.1-0.1-0.1-0.1-0.1-0.2c0.2-0.6,0.5-1.3,0.7-1.9c0-0.1,0-0.1,0-0.2
				c-0.2-0.3-0.4-0.6-0.6-0.8c-0.1-0.1-0.2-0.2-0.3-0.2c-0.7,0-1.3,0-2,0.1c-0.1,0-0.2,0-0.2-0.1c-0.1-0.5-0.3-0.9-0.4-1.4
				c0-0.1,0-0.1,0.1-0.2c0.6-0.4,1.1-0.8,1.7-1.1c0.1-0.1,0.1-0.1,0.1-0.3c0-0.3,0-0.7,0-1c0-0.1,0-0.2-0.1-0.2
				c-0.5-0.4-1.1-0.7-1.6-1.1c-0.1-0.1-0.2-0.2-0.1-0.3c0.1-0.4,0.3-0.8,0.4-1.3c0-0.1,0.1-0.1,0.2-0.1c0.7,0,1.3,0,2,0.1
				c0.1,0,0.2,0,0.2-0.1c0.2-0.3,0.5-0.6,0.7-0.9c0.1-0.1,0.1-0.1,0-0.2c-0.2-0.6-0.5-1.3-0.7-1.9c0-0.1,0-0.2,0.1-0.2
				c0.4-0.3,0.8-0.6,1.3-0.9c0.4,0.3,0.8,0.6,1.2,0.9c0.2,0.1,0.4,0.3,0.6,0.4c0,0,0.1,0,0.2,0c0.4-0.1,0.8-0.2,1.2-0.4
				c0.1,0,0.1-0.1,0.2-0.2c0.2-0.6,0.4-1.3,0.6-1.9c0-0.1,0.1-0.2,0.2-0.2c0.5,0,1,0,1.6,0c0,0,0.1,0.1,0.1,0.1
				c0.2,0.6,0.4,1.3,0.6,1.9c0,0.1,0.1,0.2,0.2,0.2c0.4,0.1,0.7,0.2,1.1,0.3c0.1,0,0.2,0,0.3,0c0.5-0.4,1.1-0.8,1.6-1.2
				c0,0,0.2,0,0.2,0c0.4,0.3,0.8,0.6,1.2,0.9c0.1,0.1,0.1,0.1,0.1,0.3c-0.2,0.6-0.5,1.2-0.7,1.9c0,0.1,0,0.2,0,0.3
				c0.2,0.2,0.4,0.5,0.6,0.8c0.1,0.2,0.2,0.2,0.4,0.2c0.6,0,1.2,0,1.8-0.1c0.2,0,0.2,0.1,0.3,0.2c0.1,0.4,0.3,0.9,0.4,1.3
				c0,0.1,0,0.2-0.1,0.2c-0.6,0.4-1.1,0.7-1.7,1.1c-0.1,0.1-0.1,0.1-0.1,0.2c0,0.4,0,0.7,0,1.1c0,0.1,0.1,0.2,0.1,0.2
				c0.5,0.4,1.1,0.7,1.7,1.1c0.1,0.1,0.1,0.1,0.1,0.2c-0.1,0.4-0.3,0.9-0.4,1.3c0,0.1-0.1,0.1-0.2,0.1c-0.7,0-1.4,0-2-0.1
				c-0.1,0-0.2,0-0.2,0.1c-0.2,0.3-0.5,0.6-0.7,1c-0.1,0.1-0.1,0.1,0,0.2c0.2,0.6,0.4,1.2,0.7,1.8c0.1,0.1,0,0.2-0.1,0.3
				c-0.4,0.3-0.8,0.5-1.1,0.8c-0.1,0.1-0.2,0.1-0.3,0c-0.5-0.4-1.1-0.8-1.6-1.2c-0.1-0.1-0.2-0.1-0.3,0c-0.4,0.1-0.7,0.2-1.1,0.4
				c-0.1,0-0.1,0.1-0.1,0.1c-0.2,0.6-0.4,1.3-0.6,1.9c0,0.1-0.1,0.2-0.2,0.2c-0.5,0-1,0-1.5,0c-0.1,0-0.1,0-0.2-0.1
				c-0.2-0.6-0.4-1.3-0.6-1.9c0-0.1-0.1-0.1-0.2-0.2c-0.4-0.1-0.7-0.2-1-0.3c-0.1,0-0.2,0-0.3,0c-0.5,0.4-1.1,0.8-1.6,1.2
				C179.8,16.8,179.8,16.8,179.7,16.9z M180.3,9.1c0,2.4,1.9,4.3,4.3,4.3c2.3,0,4.3-1.9,4.3-4.2c0-2.4-1.9-4.3-4.2-4.3
				C182.2,4.7,180.3,6.7,180.3,9.1z"/>
		</g>
	</g>
</g>
<g id="buttons-light" class="st0">
	<g class="st1">
		<g>
			<path class="st2" d="M155.3,5.7l1.5-1.8c1-1.2,1.5-1.5,2.6-1.5c0.2,0,0.4,0,0.6,0c0.8,0.1,2.1,1,2.3,3v0.9
				c-0.2,2.6-2.6,5.6-7.1,8.9c-4.5-3.3-6.8-6.3-7.1-8.9V5.5c0.2-2.1,1.5-2.9,2.3-3c0.2,0,0.4,0,0.6,0c1.2,0,1.7,0.4,2.6,1.5
				L155.3,5.7 M159.4,0.4c-2.1,0-3,0.9-4.2,2.2c-1.1-1.3-2.1-2.2-4.2-2.2c-0.3,0-0.5,0-0.8,0c-1.8,0.2-3.8,1.8-4.1,4.9v1
				c0.2,3,2.5,6.7,9.1,11.3c6.6-4.6,8.8-8.3,9.1-11.3v-1c-0.3-3.1-2.3-4.7-4.1-4.9C160,0.4,159.7,0.4,159.4,0.4"/>
		</g>
		<g>
			<path class="st2" d="M96.9,7V2h2v5H96.9 M91.9,9h9V2h0.8l1.9,1.8v12.3H89.4V2h2.5V9 M102.5,0H87.4v18.1h18.1V3L102.5,0"/>
		</g>
		<g>
			<polyline class="st2" points="216.2,4.6 213.8,7 211.4,4.6 209.4,6.7 211.8,9.1 209.4,11.5 211.4,13.5 213.8,11.1 216.2,13.5 
				218.3,11.5 215.9,9.1 218.3,6.7 216.2,4.6 			"/>
			<path class="st2" d="M213.8,16.7c-2,0-4-0.8-5.4-2.2c-1.4-1.4-2.2-3.4-2.2-5.4c0-2,0.8-4,2.2-5.4c1.4-1.4,3.4-2.2,5.4-2.2
				c2,0,4,0.8,5.4,2.2h0c1.4,1.4,2.2,3.4,2.2,5.4c0,2-0.8,4-2.2,5.4C217.8,15.9,215.9,16.7,213.8,16.7 M213.8,0
				c-2.3,0-4.6,0.9-6.4,2.7c-3.5,3.5-3.5,9.3,0,12.8c1.8,1.8,4.1,2.7,6.4,2.7c2.3,0,4.6-0.9,6.4-2.7c3.5-3.5,3.5-9.3,0-12.8
				C218.5,0.9,216.1,0,213.8,0"/>
		</g>
		<g>
			<path class="st2" d="M76.3,0.8l-2.6,2.2C72.3,1.8,70.3,1,68.2,1c-4.5,0-8.2,3.7-8.2,8.2c0,4.5,3.7,8.2,8.2,8.2
				c3.5,0,6.5-2.2,7.7-5.4l-2.6-0.4c-0.9,1.9-2.8,3.2-5.1,3.2c-3.1,0-5.6-2.5-5.6-5.6c0-3.1,2.5-5.6,5.6-5.6c1.3,0,2.5,0.5,3.5,1.2
				L69,7.2l7.3,1.1L76.3,0.8"/>
		</g>
		<g>
			<path class="st2" d="M33.3,16.7V7.9l5.8-4.4l5.8,4.4v8.8h-3.3v-5.4h-5.1v5.4H33.3 M39.1,0l-9.8,7.5l1.5,2l1.1-0.8v9.3h14.5V8.8
				l1.1,0.8l1.5-2l-3.6-2.7V0.3h-2.6v2.6L39.1,0"/>
		</g>
		<g>
			<path class="st2" d="M9.1,16.7c-2,0-4-0.8-5.4-2.2c-3-3-3-7.8,0-10.8C5.1,2.2,7,1.4,9.1,1.4s4,0.8,5.4,2.2c3,3,3,7.8,0,10.8
				C13,15.9,11.1,16.7,9.1,16.7 M9.1,0C6.7,0,4.4,0.9,2.7,2.7c-3.5,3.5-3.5,9.3,0,12.8c1.8,1.8,4.1,2.7,6.4,2.7s4.6-0.9,6.4-2.7
				c3.5-3.5,3.5-9.3,0-12.8C13.7,0.9,11.4,0,9.1,0"/>
			<polyline class="st2" points="12.9,5.3 7.8,9.5 6,7.5 3.9,9.5 3.9,9.5 7.8,13.4 14.4,6.9 12.9,5.3 			"/>
		</g>
		<g>
			<path class="st2" d="M129.9,0.4c-2.1,0-3,0.9-4.2,2.2c-1.1-1.3-2.1-2.2-4.2-2.2c-0.3,0-0.5,0-0.8,0c-1.8,0.2-3.8,1.8-4.1,4.9v1
				c0.2,3,2.5,6.7,9.1,11.3c0.8-0.5,1.4-1,2.1-1.5v-1.3h-1.5c-0.2,0.1-0.4,0.3-0.6,0.4c-4.5-3.3-6.8-6.3-7.1-8.9V5.5
				c0.2-2.1,1.5-2.9,2.3-3c0.2,0,0.4,0,0.6,0c1.2,0,1.7,0.4,2.6,1.5l1.5,1.8l1.5-1.8c1-1.2,1.5-1.5,2.6-1.5c0.2,0,0.4,0,0.6,0
				c0.8,0.1,2.1,1,2.3,3v0.9l0,0l0.1,2h1.4c0.3-0.7,0.4-1.4,0.4-2v-1c-0.3-3.1-2.3-4.7-4.1-4.9C130.4,0.4,130.2,0.4,129.9,0.4"/>
			<polyline class="st2" points="131.9,7.7 129.2,7.7 129.2,10.8 126.1,10.8 126.1,13.5 129.2,13.5 129.2,16.7 131.9,16.7 
				131.9,13.5 135.1,13.5 135.1,10.8 131.9,10.8 131.9,7.7 			"/>
		</g>
		<g>
			<path class="st2" d="M249.5,2.7c-1.8-1.8-4.1-2.7-6.4-2.7c-2.3,0-4.6,0.9-6.4,2.7c-3.5,3.5-3.5,9.3,0,12.8
				c1.8,1.8,4.1,2.7,6.4,2.7c2.3,0,4.6-0.9,6.4-2.7C253,11.9,253,6.2,249.5,2.7z M248.5,14.5c-1.4,1.4-3.4,2.2-5.4,2.2
				c-2,0-4-0.8-5.4-2.2c-3-3-3-7.8,0-10.8c1.4-1.4,3.4-2.2,5.4-2.2c2,0,4,0.8,5.4,2.2C251.5,6.6,251.5,11.5,248.5,14.5z"/>
			<path class="st2" d="M245.7,4.4c-0.6-0.4-1.5-0.6-2.5-0.6c-1.3,0-2.3,0.3-2.9,0.9c-0.6,0.6-1,1.4-1.1,2.3l2.6,0.3
				c0.1-0.5,0.2-0.9,0.5-1.1c0.2-0.3,0.6-0.4,0.9-0.4c0.4,0,0.6,0.1,0.8,0.3c0.2,0.2,0.3,0.4,0.3,0.7c0,0.3-0.2,0.6-0.6,1
				c-0.7,0.6-1.2,1-1.4,1.3c-0.2,0.2-0.4,0.5-0.5,0.8c-0.1,0.3-0.2,0.6-0.2,1.1V11h2.5c0-0.3,0.1-0.6,0.2-0.9c0.1-0.3,0.5-0.6,1-1
				c0.7-0.5,1.1-1,1.4-1.4c0.2-0.4,0.3-0.7,0.3-1.1C247,5.7,246.5,5,245.7,4.4z"/>
			<circle class="st2" cx="242.9" cy="13.3" r="1.4"/>
		</g>
		<g>
			<path class="st2" d="M179.7,16.9c-0.4-0.3-0.9-0.6-1.3-0.9c-0.1-0.1-0.1-0.1-0.1-0.2c0.2-0.6,0.5-1.3,0.7-1.9c0-0.1,0-0.1,0-0.2
				c-0.2-0.3-0.4-0.6-0.6-0.8c-0.1-0.1-0.2-0.2-0.3-0.2c-0.7,0-1.3,0-2,0.1c-0.1,0-0.2,0-0.2-0.1c-0.1-0.5-0.3-0.9-0.4-1.4
				c0-0.1,0-0.1,0.1-0.2c0.6-0.4,1.1-0.8,1.7-1.1c0.1-0.1,0.1-0.1,0.1-0.3c0-0.3,0-0.7,0-1c0-0.1,0-0.2-0.1-0.2
				c-0.5-0.4-1.1-0.7-1.6-1.1c-0.1-0.1-0.2-0.2-0.1-0.3c0.1-0.4,0.3-0.8,0.4-1.3c0-0.1,0.1-0.1,0.2-0.1c0.7,0,1.3,0,2,0.1
				c0.1,0,0.2,0,0.2-0.1c0.2-0.3,0.5-0.6,0.7-0.9c0.1-0.1,0.1-0.1,0-0.2c-0.2-0.6-0.5-1.3-0.7-1.9c0-0.1,0-0.2,0.1-0.2
				c0.4-0.3,0.8-0.6,1.3-0.9c0.4,0.3,0.8,0.6,1.2,0.9c0.2,0.1,0.4,0.3,0.6,0.4c0,0,0.1,0,0.2,0c0.4-0.1,0.8-0.2,1.2-0.4
				c0.1,0,0.1-0.1,0.2-0.2c0.2-0.6,0.4-1.3,0.6-1.9c0-0.1,0.1-0.2,0.2-0.2c0.5,0,1,0,1.6,0c0,0,0.1,0.1,0.1,0.1
				c0.2,0.6,0.4,1.3,0.6,1.9c0,0.1,0.1,0.2,0.2,0.2c0.4,0.1,0.7,0.2,1.1,0.3c0.1,0,0.2,0,0.3,0c0.5-0.4,1.1-0.8,1.6-1.2
				c0,0,0.2,0,0.2,0c0.4,0.3,0.8,0.6,1.2,0.9c0.1,0.1,0.1,0.1,0.1,0.3c-0.2,0.6-0.5,1.2-0.7,1.9c0,0.1,0,0.2,0,0.3
				c0.2,0.2,0.4,0.5,0.6,0.8c0.1,0.2,0.2,0.2,0.4,0.2c0.6,0,1.2,0,1.8-0.1c0.2,0,0.2,0.1,0.3,0.2c0.1,0.4,0.3,0.9,0.4,1.3
				c0,0.1,0,0.2-0.1,0.2c-0.6,0.4-1.1,0.7-1.7,1.1c-0.1,0.1-0.1,0.1-0.1,0.2c0,0.4,0,0.7,0,1.1c0,0.1,0.1,0.2,0.1,0.2
				c0.5,0.4,1.1,0.7,1.7,1.1c0.1,0.1,0.1,0.1,0.1,0.2c-0.1,0.4-0.3,0.9-0.4,1.3c0,0.1-0.1,0.1-0.2,0.1c-0.7,0-1.4,0-2-0.1
				c-0.1,0-0.2,0-0.2,0.1c-0.2,0.3-0.5,0.6-0.7,1c-0.1,0.1-0.1,0.1,0,0.2c0.2,0.6,0.4,1.2,0.7,1.8c0.1,0.1,0,0.2-0.1,0.3
				c-0.4,0.3-0.8,0.5-1.1,0.8c-0.1,0.1-0.2,0.1-0.3,0c-0.5-0.4-1.1-0.8-1.6-1.2c-0.1-0.1-0.2-0.1-0.3,0c-0.4,0.1-0.7,0.2-1.1,0.4
				c-0.1,0-0.1,0.1-0.1,0.1c-0.2,0.6-0.4,1.3-0.6,1.9c0,0.1-0.1,0.2-0.2,0.2c-0.5,0-1,0-1.5,0c-0.1,0-0.1,0-0.2-0.1
				c-0.2-0.6-0.4-1.3-0.6-1.9c0-0.1-0.1-0.1-0.2-0.2c-0.4-0.1-0.7-0.2-1-0.3c-0.1,0-0.2,0-0.3,0c-0.5,0.4-1.1,0.8-1.6,1.2
				C179.8,16.8,179.8,16.8,179.7,16.9z M180.3,9.1c0,2.4,1.9,4.3,4.3,4.3c2.3,0,4.3-1.9,4.3-4.2c0-2.4-1.9-4.3-4.2-4.3
				C182.2,4.7,180.3,6.7,180.3,9.1z"/>
		</g>
	</g>
</g>
</svg>
