<?xml version="1.0" encoding="utf-8"?>
<!-- Generator: Adobe Illustrator 19.1.1, SVG Export Plug-In . SVG Version: 6.00 Build 0)  -->
<svg version="1.0" xmlns="http://www.w3.org/2000/svg" xmlns:xlink="http://www.w3.org/1999/xlink" x="0px" y="0px" width="154px"
	 height="40px" viewBox="0 0 154 40" style="enable-background:new 0 0 154 40;" xml:space="preserve">
<style type="text/css">
	.st0{fill:none;}
	.st1{fill:none;stroke:#DFDEDE;stroke-width:0.5003;stroke-linejoin:round;}
	.st2{fill:none;stroke:#000000;stroke-width:0.5003;stroke-linejoin:round;}
	.st3{fill:none;stroke:#000000;stroke-linejoin:round;}
	.st4{fill:url(#New_Pattern_Swatch_3);stroke:#0B0B0B;stroke-miterlimit:10;}
	.st5{fill:#FFFFFF;}
	.st6{fill:none;stroke:#0B0B0B;stroke-miterlimit:10;}
	.st7{fill:#0B0B0B;}
	.st8{fill:url(#Unnamed_Pattern_3);}
	.st9{fill:url(#New_Pattern_Swatch_2);stroke:#0B0B0B;stroke-miterlimit:10;}
	.st10{display:none;}
	.st11{display:inline;fill:url(#New_Pattern_Swatch_2);stroke:#DFDEDE;stroke-miterlimit:10;}
	.st12{display:inline;}
	.st13{fill:none;stroke:#DFDEDE;stroke-miterlimit:10;}
	.st14{fill:#DFDEDE;}
	.st15{fill:#9B9A9A;}
</style>
<pattern  x="-195" y="-455.7" width="41.7" height="41.7" patternUnits="userSpaceOnUse" id="New_Pattern_Swatch_2" viewBox="46.2 -86.2 41.7 41.7" style="overflow:visible;">
	<g>
		<polygon class="st0" points="46.2,-86.2 87.9,-86.2 87.9,-44.5 46.2,-44.5 		"/>
		<g>
			<line class="st1" x1="83.5" y1="-38.4" x2="94" y2="-48.8"/>
			<line class="st1" x1="83.5" y1="-34.9" x2="97.4" y2="-48.8"/>
			<line class="st1" x1="83.5" y1="-31.4" x2="100.9" y2="-48.8"/>
			<line class="st1" x1="83.5" y1="-28" x2="104.4" y2="-48.8"/>
			<line class="st1" x1="83.5" y1="-24.5" x2="107.9" y2="-48.8"/>
			<line class="st1" x1="83.5" y1="-21" x2="111.3" y2="-48.8"/>
			<line class="st1" x1="83.5" y1="-17.5" x2="114.8" y2="-48.8"/>
			<line class="st1" x1="83.5" y1="-14.1" x2="118.3" y2="-48.8"/>
			<line class="st1" x1="83.5" y1="-10.6" x2="121.8" y2="-48.8"/>
			<line class="st1" x1="83.5" y1="-7.1" x2="125.2" y2="-48.8"/>
			<line class="st1" x1="83.5" y1="-3.7" x2="128.7" y2="-48.8"/>
			<line class="st1" x1="83.5" y1="-0.2" x2="132.2" y2="-48.8"/>
			<line class="st1" x1="87" y1="-0.2" x2="132.2" y2="-45.3"/>
		</g>
		<g>
			<line class="st1" x1="41.9" y1="-38.4" x2="52.3" y2="-48.8"/>
			<line class="st1" x1="41.9" y1="-34.9" x2="55.8" y2="-48.8"/>
			<line class="st1" x1="41.9" y1="-31.4" x2="59.2" y2="-48.8"/>
			<line class="st1" x1="41.9" y1="-28" x2="62.7" y2="-48.8"/>
			<line class="st1" x1="41.9" y1="-24.5" x2="66.2" y2="-48.8"/>
			<line class="st1" x1="41.9" y1="-21" x2="69.7" y2="-48.8"/>
			<line class="st1" x1="41.9" y1="-17.5" x2="73.1" y2="-48.8"/>
			<line class="st1" x1="41.9" y1="-14.1" x2="76.6" y2="-48.8"/>
			<line class="st1" x1="41.9" y1="-10.6" x2="80.1" y2="-48.8"/>
			<line class="st1" x1="41.9" y1="-7.1" x2="83.5" y2="-48.8"/>
			<line class="st1" x1="41.9" y1="-3.7" x2="87" y2="-48.8"/>
			<line class="st1" x1="41.9" y1="-0.2" x2="90.5" y2="-48.8"/>
			<line class="st1" x1="45.3" y1="-0.2" x2="90.5" y2="-45.3"/>
		</g>
		<g>
			<line class="st1" x1="0.2" y1="-0.2" x2="48.8" y2="-48.8"/>
			<line class="st1" x1="3.7" y1="-0.2" x2="48.8" y2="-45.3"/>
		</g>
		<g>
			<line class="st1" x1="83.5" y1="-80.1" x2="94" y2="-90.5"/>
			<line class="st1" x1="83.5" y1="-76.6" x2="97.4" y2="-90.5"/>
			<line class="st1" x1="83.5" y1="-73.1" x2="100.9" y2="-90.5"/>
			<line class="st1" x1="83.5" y1="-69.7" x2="104.4" y2="-90.5"/>
			<line class="st1" x1="83.5" y1="-66.2" x2="107.9" y2="-90.5"/>
			<line class="st1" x1="83.5" y1="-62.7" x2="111.3" y2="-90.5"/>
			<line class="st1" x1="83.5" y1="-59.2" x2="114.8" y2="-90.5"/>
			<line class="st1" x1="83.5" y1="-55.8" x2="118.3" y2="-90.5"/>
			<line class="st1" x1="83.5" y1="-52.3" x2="121.8" y2="-90.5"/>
			<line class="st1" x1="83.5" y1="-48.8" x2="125.2" y2="-90.5"/>
			<line class="st1" x1="83.5" y1="-45.3" x2="128.7" y2="-90.5"/>
			<line class="st1" x1="83.5" y1="-41.9" x2="132.2" y2="-90.5"/>
			<line class="st1" x1="87" y1="-41.9" x2="132.2" y2="-87"/>
		</g>
		<g>
			<line class="st1" x1="41.9" y1="-80.1" x2="52.3" y2="-90.5"/>
			<line class="st1" x1="41.9" y1="-76.6" x2="55.8" y2="-90.5"/>
			<line class="st1" x1="41.9" y1="-73.1" x2="59.2" y2="-90.5"/>
			<line class="st1" x1="41.9" y1="-69.7" x2="62.7" y2="-90.5"/>
			<line class="st1" x1="41.9" y1="-66.2" x2="66.2" y2="-90.5"/>
			<line class="st1" x1="41.9" y1="-62.7" x2="69.7" y2="-90.5"/>
			<line class="st1" x1="41.9" y1="-59.2" x2="73.1" y2="-90.5"/>
			<line class="st1" x1="41.9" y1="-55.8" x2="76.6" y2="-90.5"/>
			<line class="st1" x1="41.9" y1="-52.3" x2="80.1" y2="-90.5"/>
			<line class="st1" x1="41.9" y1="-48.8" x2="83.5" y2="-90.5"/>
			<line class="st1" x1="41.9" y1="-45.3" x2="87" y2="-90.5"/>
			<line class="st1" x1="41.9" y1="-41.9" x2="90.5" y2="-90.5"/>
			<line class="st1" x1="45.3" y1="-41.9" x2="90.5" y2="-87"/>
			<line class="st1" x1="48.8" y1="-41.9" x2="90.5" y2="-83.5"/>
			<line class="st1" x1="52.3" y1="-41.9" x2="90.5" y2="-80.1"/>
			<line class="st1" x1="55.8" y1="-41.9" x2="90.5" y2="-76.6"/>
			<line class="st1" x1="59.2" y1="-41.9" x2="90.5" y2="-73.1"/>
			<line class="st1" x1="62.7" y1="-41.9" x2="90.5" y2="-69.7"/>
			<line class="st1" x1="66.2" y1="-41.9" x2="90.5" y2="-66.2"/>
			<line class="st1" x1="69.7" y1="-41.9" x2="90.5" y2="-62.7"/>
			<line class="st1" x1="73.1" y1="-41.9" x2="90.5" y2="-59.2"/>
			<line class="st1" x1="76.6" y1="-41.9" x2="90.5" y2="-55.8"/>
			<line class="st1" x1="80.1" y1="-41.9" x2="90.5" y2="-52.3"/>
			<line class="st1" x1="83.5" y1="-41.9" x2="90.5" y2="-48.8"/>
		</g>
		<g>
			<line class="st1" x1="0.2" y1="-41.9" x2="48.8" y2="-90.5"/>
			<line class="st1" x1="3.7" y1="-41.9" x2="48.8" y2="-87"/>
			<line class="st1" x1="7.1" y1="-41.9" x2="48.8" y2="-83.5"/>
			<line class="st1" x1="10.6" y1="-41.9" x2="48.8" y2="-80.1"/>
			<line class="st1" x1="14.1" y1="-41.9" x2="48.8" y2="-76.6"/>
			<line class="st1" x1="17.5" y1="-41.9" x2="48.8" y2="-73.1"/>
			<line class="st1" x1="21" y1="-41.9" x2="48.8" y2="-69.7"/>
			<line class="st1" x1="24.5" y1="-41.9" x2="48.8" y2="-66.2"/>
			<line class="st1" x1="28" y1="-41.9" x2="48.8" y2="-62.7"/>
			<line class="st1" x1="31.4" y1="-41.9" x2="48.8" y2="-59.2"/>
			<line class="st1" x1="34.9" y1="-41.9" x2="48.8" y2="-55.8"/>
			<line class="st1" x1="38.4" y1="-41.9" x2="48.8" y2="-52.3"/>
			<line class="st1" x1="41.9" y1="-41.9" x2="48.8" y2="-48.8"/>
		</g>
		<g>
			<line class="st1" x1="83.5" y1="-83.5" x2="132.2" y2="-132.2"/>
			<line class="st1" x1="87" y1="-83.5" x2="132.2" y2="-128.7"/>
		</g>
		<g>
			<line class="st1" x1="41.9" y1="-83.5" x2="90.5" y2="-132.2"/>
			<line class="st1" x1="45.3" y1="-83.5" x2="90.5" y2="-128.7"/>
			<line class="st1" x1="48.8" y1="-83.5" x2="90.5" y2="-125.2"/>
			<line class="st1" x1="52.3" y1="-83.5" x2="90.5" y2="-121.8"/>
			<line class="st1" x1="55.8" y1="-83.5" x2="90.5" y2="-118.3"/>
			<line class="st1" x1="59.2" y1="-83.5" x2="90.5" y2="-114.8"/>
			<line class="st1" x1="62.7" y1="-83.5" x2="90.5" y2="-111.3"/>
			<line class="st1" x1="66.2" y1="-83.5" x2="90.5" y2="-107.9"/>
			<line class="st1" x1="69.7" y1="-83.5" x2="90.5" y2="-104.4"/>
			<line class="st1" x1="73.1" y1="-83.5" x2="90.5" y2="-100.9"/>
			<line class="st1" x1="76.6" y1="-83.5" x2="90.5" y2="-97.4"/>
			<line class="st1" x1="80.1" y1="-83.5" x2="90.5" y2="-94"/>
			<line class="st1" x1="83.5" y1="-83.5" x2="90.5" y2="-90.5"/>
		</g>
		<g>
			<line class="st1" x1="0.2" y1="-83.5" x2="48.8" y2="-132.2"/>
			<line class="st1" x1="3.7" y1="-83.5" x2="48.8" y2="-128.7"/>
			<line class="st1" x1="7.1" y1="-83.5" x2="48.8" y2="-125.2"/>
			<line class="st1" x1="10.6" y1="-83.5" x2="48.8" y2="-121.8"/>
			<line class="st1" x1="14.1" y1="-83.5" x2="48.8" y2="-118.3"/>
			<line class="st1" x1="17.5" y1="-83.5" x2="48.8" y2="-114.8"/>
			<line class="st1" x1="21" y1="-83.5" x2="48.8" y2="-111.3"/>
			<line class="st1" x1="24.5" y1="-83.5" x2="48.8" y2="-107.9"/>
			<line class="st1" x1="28" y1="-83.5" x2="48.8" y2="-104.4"/>
			<line class="st1" x1="31.4" y1="-83.5" x2="48.8" y2="-100.9"/>
			<line class="st1" x1="34.9" y1="-83.5" x2="48.8" y2="-97.4"/>
			<line class="st1" x1="38.4" y1="-83.5" x2="48.8" y2="-94"/>
			<line class="st1" x1="41.9" y1="-83.5" x2="48.8" y2="-90.5"/>
		</g>
	</g>
</pattern>
<pattern  x="-195" y="-455.7" width="41.7" height="41.7" patternUnits="userSpaceOnUse" id="New_Pattern_Swatch_3" viewBox="46.2 -86.2 41.7 41.7" style="overflow:visible;">
	<g>
		<polygon class="st0" points="46.2,-86.2 87.9,-86.2 87.9,-44.5 46.2,-44.5 		"/>
		<g>
			<line class="st2" x1="83.5" y1="-38.4" x2="94" y2="-48.8"/>
			<line class="st2" x1="83.5" y1="-34.9" x2="97.4" y2="-48.8"/>
			<line class="st2" x1="83.5" y1="-31.4" x2="100.9" y2="-48.8"/>
			<line class="st2" x1="83.5" y1="-28" x2="104.4" y2="-48.8"/>
			<line class="st2" x1="83.5" y1="-24.5" x2="107.9" y2="-48.8"/>
			<line class="st2" x1="83.5" y1="-21" x2="111.3" y2="-48.8"/>
			<line class="st2" x1="83.5" y1="-17.5" x2="114.8" y2="-48.8"/>
			<line class="st2" x1="83.5" y1="-14.1" x2="118.3" y2="-48.8"/>
			<line class="st2" x1="83.5" y1="-10.6" x2="121.8" y2="-48.8"/>
			<line class="st2" x1="83.5" y1="-7.1" x2="125.2" y2="-48.8"/>
			<line class="st2" x1="83.5" y1="-3.7" x2="128.7" y2="-48.8"/>
			<line class="st2" x1="83.5" y1="-0.2" x2="132.2" y2="-48.8"/>
			<line class="st2" x1="87" y1="-0.2" x2="132.2" y2="-45.3"/>
		</g>
		<g>
			<line class="st2" x1="41.9" y1="-38.4" x2="52.3" y2="-48.8"/>
			<line class="st2" x1="41.9" y1="-34.9" x2="55.8" y2="-48.8"/>
			<line class="st2" x1="41.9" y1="-31.4" x2="59.2" y2="-48.8"/>
			<line class="st2" x1="41.9" y1="-28" x2="62.7" y2="-48.8"/>
			<line class="st2" x1="41.9" y1="-24.5" x2="66.2" y2="-48.8"/>
			<line class="st2" x1="41.9" y1="-21" x2="69.7" y2="-48.8"/>
			<line class="st2" x1="41.9" y1="-17.5" x2="73.1" y2="-48.8"/>
			<line class="st2" x1="41.9" y1="-14.1" x2="76.6" y2="-48.8"/>
			<line class="st2" x1="41.9" y1="-10.6" x2="80.1" y2="-48.8"/>
			<line class="st2" x1="41.9" y1="-7.1" x2="83.5" y2="-48.8"/>
			<line class="st2" x1="41.9" y1="-3.7" x2="87" y2="-48.8"/>
			<line class="st2" x1="41.9" y1="-0.2" x2="90.5" y2="-48.8"/>
			<line class="st2" x1="45.3" y1="-0.2" x2="90.5" y2="-45.3"/>
		</g>
		<g>
			<line class="st2" x1="0.2" y1="-0.2" x2="48.8" y2="-48.8"/>
			<line class="st2" x1="3.7" y1="-0.2" x2="48.8" y2="-45.3"/>
		</g>
		<g>
			<line class="st2" x1="83.5" y1="-80.1" x2="94" y2="-90.5"/>
			<line class="st2" x1="83.5" y1="-76.6" x2="97.4" y2="-90.5"/>
			<line class="st2" x1="83.5" y1="-73.1" x2="100.9" y2="-90.5"/>
			<line class="st2" x1="83.5" y1="-69.7" x2="104.4" y2="-90.5"/>
			<line class="st2" x1="83.5" y1="-66.2" x2="107.9" y2="-90.5"/>
			<line class="st2" x1="83.5" y1="-62.7" x2="111.3" y2="-90.5"/>
			<line class="st2" x1="83.5" y1="-59.2" x2="114.8" y2="-90.5"/>
			<line class="st2" x1="83.5" y1="-55.8" x2="118.3" y2="-90.5"/>
			<line class="st2" x1="83.5" y1="-52.3" x2="121.8" y2="-90.5"/>
			<line class="st2" x1="83.5" y1="-48.8" x2="125.2" y2="-90.5"/>
			<line class="st2" x1="83.5" y1="-45.3" x2="128.7" y2="-90.5"/>
			<line class="st2" x1="83.5" y1="-41.9" x2="132.2" y2="-90.5"/>
			<line class="st2" x1="87" y1="-41.9" x2="132.2" y2="-87"/>
		</g>
		<g>
			<line class="st2" x1="41.9" y1="-80.1" x2="52.3" y2="-90.5"/>
			<line class="st2" x1="41.9" y1="-76.6" x2="55.8" y2="-90.5"/>
			<line class="st2" x1="41.9" y1="-73.1" x2="59.2" y2="-90.5"/>
			<line class="st2" x1="41.9" y1="-69.7" x2="62.7" y2="-90.5"/>
			<line class="st2" x1="41.9" y1="-66.2" x2="66.2" y2="-90.5"/>
			<line class="st2" x1="41.9" y1="-62.7" x2="69.7" y2="-90.5"/>
			<line class="st2" x1="41.9" y1="-59.2" x2="73.1" y2="-90.5"/>
			<line class="st2" x1="41.9" y1="-55.8" x2="76.6" y2="-90.5"/>
			<line class="st2" x1="41.9" y1="-52.3" x2="80.1" y2="-90.5"/>
			<line class="st2" x1="41.9" y1="-48.8" x2="83.5" y2="-90.5"/>
			<line class="st2" x1="41.9" y1="-45.3" x2="87" y2="-90.5"/>
			<line class="st2" x1="41.9" y1="-41.9" x2="90.5" y2="-90.5"/>
			<line class="st2" x1="45.3" y1="-41.9" x2="90.5" y2="-87"/>
			<line class="st2" x1="48.8" y1="-41.9" x2="90.5" y2="-83.5"/>
			<line class="st2" x1="52.3" y1="-41.9" x2="90.5" y2="-80.1"/>
			<line class="st2" x1="55.8" y1="-41.9" x2="90.5" y2="-76.6"/>
			<line class="st2" x1="59.2" y1="-41.9" x2="90.5" y2="-73.1"/>
			<line class="st2" x1="62.7" y1="-41.9" x2="90.5" y2="-69.7"/>
			<line class="st2" x1="66.2" y1="-41.9" x2="90.5" y2="-66.2"/>
			<line class="st2" x1="69.7" y1="-41.9" x2="90.5" y2="-62.7"/>
			<line class="st2" x1="73.1" y1="-41.9" x2="90.5" y2="-59.2"/>
			<line class="st2" x1="76.6" y1="-41.9" x2="90.5" y2="-55.8"/>
			<line class="st2" x1="80.1" y1="-41.9" x2="90.5" y2="-52.3"/>
			<line class="st2" x1="83.5" y1="-41.9" x2="90.5" y2="-48.8"/>
		</g>
		<g>
			<line class="st2" x1="0.2" y1="-41.9" x2="48.8" y2="-90.5"/>
			<line class="st2" x1="3.7" y1="-41.9" x2="48.8" y2="-87"/>
			<line class="st2" x1="7.1" y1="-41.9" x2="48.8" y2="-83.5"/>
			<line class="st2" x1="10.6" y1="-41.9" x2="48.8" y2="-80.1"/>
			<line class="st2" x1="14.1" y1="-41.9" x2="48.8" y2="-76.6"/>
			<line class="st2" x1="17.5" y1="-41.9" x2="48.8" y2="-73.1"/>
			<line class="st2" x1="21" y1="-41.9" x2="48.8" y2="-69.7"/>
			<line class="st2" x1="24.5" y1="-41.9" x2="48.8" y2="-66.2"/>
			<line class="st2" x1="28" y1="-41.9" x2="48.8" y2="-62.7"/>
			<line class="st2" x1="31.4" y1="-41.9" x2="48.8" y2="-59.2"/>
			<line class="st2" x1="34.9" y1="-41.9" x2="48.8" y2="-55.8"/>
			<line class="st2" x1="38.4" y1="-41.9" x2="48.8" y2="-52.3"/>
			<line class="st2" x1="41.9" y1="-41.9" x2="48.8" y2="-48.8"/>
		</g>
		<g>
			<line class="st2" x1="83.5" y1="-83.5" x2="132.2" y2="-132.2"/>
			<line class="st2" x1="87" y1="-83.5" x2="132.2" y2="-128.7"/>
		</g>
		<g>
			<line class="st2" x1="41.9" y1="-83.5" x2="90.5" y2="-132.2"/>
			<line class="st2" x1="45.3" y1="-83.5" x2="90.5" y2="-128.7"/>
			<line class="st2" x1="48.8" y1="-83.5" x2="90.5" y2="-125.2"/>
			<line class="st2" x1="52.3" y1="-83.5" x2="90.5" y2="-121.8"/>
			<line class="st2" x1="55.8" y1="-83.5" x2="90.5" y2="-118.3"/>
			<line class="st2" x1="59.2" y1="-83.5" x2="90.5" y2="-114.8"/>
			<line class="st2" x1="62.7" y1="-83.5" x2="90.5" y2="-111.3"/>
			<line class="st2" x1="66.2" y1="-83.5" x2="90.5" y2="-107.9"/>
			<line class="st2" x1="69.7" y1="-83.5" x2="90.5" y2="-104.4"/>
			<line class="st2" x1="73.1" y1="-83.5" x2="90.5" y2="-100.9"/>
			<line class="st2" x1="76.6" y1="-83.5" x2="90.5" y2="-97.4"/>
			<line class="st2" x1="80.1" y1="-83.5" x2="90.5" y2="-94"/>
			<line class="st2" x1="83.5" y1="-83.5" x2="90.5" y2="-90.5"/>
		</g>
		<g>
			<line class="st2" x1="0.2" y1="-83.5" x2="48.8" y2="-132.2"/>
			<line class="st2" x1="3.7" y1="-83.5" x2="48.8" y2="-128.7"/>
			<line class="st2" x1="7.1" y1="-83.5" x2="48.8" y2="-125.2"/>
			<line class="st2" x1="10.6" y1="-83.5" x2="48.8" y2="-121.8"/>
			<line class="st2" x1="14.1" y1="-83.5" x2="48.8" y2="-118.3"/>
			<line class="st2" x1="17.5" y1="-83.5" x2="48.8" y2="-114.8"/>
			<line class="st2" x1="21" y1="-83.5" x2="48.8" y2="-111.3"/>
			<line class="st2" x1="24.5" y1="-83.5" x2="48.8" y2="-107.9"/>
			<line class="st2" x1="28" y1="-83.5" x2="48.8" y2="-104.4"/>
			<line class="st2" x1="31.4" y1="-83.5" x2="48.8" y2="-100.9"/>
			<line class="st2" x1="34.9" y1="-83.5" x2="48.8" y2="-97.4"/>
			<line class="st2" x1="38.4" y1="-83.5" x2="48.8" y2="-94"/>
			<line class="st2" x1="41.9" y1="-83.5" x2="48.8" y2="-90.5"/>
		</g>
	</g>
</pattern>
<pattern  x="-195" y="-455.7" width="41.7" height="41.7" patternUnits="userSpaceOnUse" id="Unnamed_Pattern_3" viewBox="46.4 -86.3 41.7 41.7" style="overflow:visible;">
	<g>
		<polygon class="st0" points="46.4,-86.3 88.1,-86.3 88.1,-44.7 46.4,-44.7 		"/>
		<g>
			<line class="st3" x1="83.7" y1="-38.6" x2="94.1" y2="-49"/>
			<line class="st3" x1="83.7" y1="-35.1" x2="97.6" y2="-49"/>
			<line class="st3" x1="83.7" y1="-31.6" x2="101.1" y2="-49"/>
			<line class="st3" x1="83.7" y1="-28.1" x2="104.6" y2="-49"/>
			<line class="st3" x1="83.7" y1="-24.7" x2="108" y2="-49"/>
			<line class="st3" x1="83.7" y1="-21.2" x2="111.5" y2="-49"/>
			<line class="st3" x1="83.7" y1="-17.7" x2="115" y2="-49"/>
			<line class="st3" x1="83.7" y1="-14.2" x2="118.5" y2="-49"/>
			<line class="st3" x1="83.7" y1="-10.8" x2="121.9" y2="-49"/>
			<line class="st3" x1="83.7" y1="-7.3" x2="125.4" y2="-49"/>
			<line class="st3" x1="83.7" y1="-3.8" x2="128.9" y2="-49"/>
			<line class="st3" x1="83.7" y1="-0.4" x2="132.4" y2="-49"/>
			<line class="st3" x1="87.2" y1="-0.4" x2="132.4" y2="-45.5"/>
		</g>
		<g>
			<line class="st3" x1="42" y1="-38.6" x2="52.5" y2="-49"/>
			<line class="st3" x1="42" y1="-35.1" x2="55.9" y2="-49"/>
			<line class="st3" x1="42" y1="-31.6" x2="59.4" y2="-49"/>
			<line class="st3" x1="42" y1="-28.1" x2="62.9" y2="-49"/>
			<line class="st3" x1="42" y1="-24.7" x2="66.4" y2="-49"/>
			<line class="st3" x1="42" y1="-21.2" x2="69.8" y2="-49"/>
			<line class="st3" x1="42" y1="-17.7" x2="73.3" y2="-49"/>
			<line class="st3" x1="42" y1="-14.2" x2="76.8" y2="-49"/>
			<line class="st3" x1="42" y1="-10.8" x2="80.2" y2="-49"/>
			<line class="st3" x1="42" y1="-7.3" x2="83.7" y2="-49"/>
			<line class="st3" x1="42" y1="-3.8" x2="87.2" y2="-49"/>
			<line class="st3" x1="42" y1="-0.4" x2="90.7" y2="-49"/>
			<line class="st3" x1="45.5" y1="-0.4" x2="90.7" y2="-45.5"/>
		</g>
		<g>
			<line class="st3" x1="0.4" y1="-0.4" x2="49" y2="-49"/>
			<line class="st3" x1="3.8" y1="-0.4" x2="49" y2="-45.5"/>
		</g>
		<g>
			<line class="st3" x1="83.7" y1="-80.2" x2="94.1" y2="-90.7"/>
			<line class="st3" x1="83.7" y1="-76.8" x2="97.6" y2="-90.7"/>
			<line class="st3" x1="83.7" y1="-73.3" x2="101.1" y2="-90.7"/>
			<line class="st3" x1="83.7" y1="-69.8" x2="104.6" y2="-90.7"/>
			<line class="st3" x1="83.7" y1="-66.4" x2="108" y2="-90.7"/>
			<line class="st3" x1="83.7" y1="-62.9" x2="111.5" y2="-90.7"/>
			<line class="st3" x1="83.7" y1="-59.4" x2="115" y2="-90.7"/>
			<line class="st3" x1="83.7" y1="-55.9" x2="118.5" y2="-90.7"/>
			<line class="st3" x1="83.7" y1="-52.5" x2="121.9" y2="-90.7"/>
			<line class="st3" x1="83.7" y1="-49" x2="125.4" y2="-90.7"/>
			<line class="st3" x1="83.7" y1="-45.5" x2="128.9" y2="-90.7"/>
			<line class="st3" x1="83.7" y1="-42" x2="132.4" y2="-90.7"/>
			<line class="st3" x1="87.2" y1="-42" x2="132.4" y2="-87.2"/>
		</g>
		<g>
			<line class="st3" x1="42" y1="-80.2" x2="52.5" y2="-90.7"/>
			<line class="st3" x1="42" y1="-76.8" x2="55.9" y2="-90.7"/>
			<line class="st3" x1="42" y1="-73.3" x2="59.4" y2="-90.7"/>
			<line class="st3" x1="42" y1="-69.8" x2="62.9" y2="-90.7"/>
			<line class="st3" x1="42" y1="-66.4" x2="66.4" y2="-90.7"/>
			<line class="st3" x1="42" y1="-62.9" x2="69.8" y2="-90.7"/>
			<line class="st3" x1="42" y1="-59.4" x2="73.3" y2="-90.7"/>
			<line class="st3" x1="42" y1="-55.9" x2="76.8" y2="-90.7"/>
			<line class="st3" x1="42" y1="-52.5" x2="80.2" y2="-90.7"/>
			<line class="st3" x1="42" y1="-49" x2="83.7" y2="-90.7"/>
			<line class="st3" x1="42" y1="-45.5" x2="87.2" y2="-90.7"/>
			<line class="st3" x1="42" y1="-42" x2="90.7" y2="-90.7"/>
			<line class="st3" x1="45.5" y1="-42" x2="90.7" y2="-87.2"/>
			<line class="st3" x1="49" y1="-42" x2="90.7" y2="-83.7"/>
			<line class="st3" x1="52.5" y1="-42" x2="90.7" y2="-80.2"/>
			<line class="st3" x1="55.9" y1="-42" x2="90.7" y2="-76.8"/>
			<line class="st3" x1="59.4" y1="-42" x2="90.7" y2="-73.3"/>
			<line class="st3" x1="62.9" y1="-42" x2="90.7" y2="-69.8"/>
			<line class="st3" x1="66.4" y1="-42" x2="90.7" y2="-66.4"/>
			<line class="st3" x1="69.8" y1="-42" x2="90.7" y2="-62.9"/>
			<line class="st3" x1="73.3" y1="-42" x2="90.7" y2="-59.4"/>
			<line class="st3" x1="76.8" y1="-42" x2="90.7" y2="-55.9"/>
			<line class="st3" x1="80.2" y1="-42" x2="90.7" y2="-52.5"/>
			<line class="st3" x1="83.7" y1="-42" x2="90.7" y2="-49"/>
		</g>
		<g>
			<line class="st3" x1="0.4" y1="-42" x2="49" y2="-90.7"/>
			<line class="st3" x1="3.8" y1="-42" x2="49" y2="-87.2"/>
			<line class="st3" x1="7.3" y1="-42" x2="49" y2="-83.7"/>
			<line class="st3" x1="10.8" y1="-42" x2="49" y2="-80.2"/>
			<line class="st3" x1="14.2" y1="-42" x2="49" y2="-76.8"/>
			<line class="st3" x1="17.7" y1="-42" x2="49" y2="-73.3"/>
			<line class="st3" x1="21.2" y1="-42" x2="49" y2="-69.8"/>
			<line class="st3" x1="24.7" y1="-42" x2="49" y2="-66.4"/>
			<line class="st3" x1="28.1" y1="-42" x2="49" y2="-62.9"/>
			<line class="st3" x1="31.6" y1="-42" x2="49" y2="-59.4"/>
			<line class="st3" x1="35.1" y1="-42" x2="49" y2="-55.9"/>
			<line class="st3" x1="38.6" y1="-42" x2="49" y2="-52.5"/>
			<line class="st3" x1="42" y1="-42" x2="49" y2="-49"/>
		</g>
		<g>
			<line class="st3" x1="83.7" y1="-83.7" x2="132.4" y2="-132.4"/>
			<line class="st3" x1="87.2" y1="-83.7" x2="132.4" y2="-128.9"/>
		</g>
		<g>
			<line class="st3" x1="42" y1="-83.7" x2="90.7" y2="-132.4"/>
			<line class="st3" x1="45.5" y1="-83.7" x2="90.7" y2="-128.9"/>
			<line class="st3" x1="49" y1="-83.7" x2="90.7" y2="-125.4"/>
			<line class="st3" x1="52.5" y1="-83.7" x2="90.7" y2="-121.9"/>
			<line class="st3" x1="55.9" y1="-83.7" x2="90.7" y2="-118.5"/>
			<line class="st3" x1="59.4" y1="-83.7" x2="90.7" y2="-115"/>
			<line class="st3" x1="62.9" y1="-83.7" x2="90.7" y2="-111.5"/>
			<line class="st3" x1="66.4" y1="-83.7" x2="90.7" y2="-108"/>
			<line class="st3" x1="69.8" y1="-83.7" x2="90.7" y2="-104.6"/>
			<line class="st3" x1="73.3" y1="-83.7" x2="90.7" y2="-101.1"/>
			<line class="st3" x1="76.8" y1="-83.7" x2="90.7" y2="-97.6"/>
			<line class="st3" x1="80.2" y1="-83.7" x2="90.7" y2="-94.1"/>
			<line class="st3" x1="83.7" y1="-83.7" x2="90.7" y2="-90.7"/>
		</g>
		<g>
			<line class="st3" x1="0.4" y1="-83.7" x2="49" y2="-132.4"/>
			<line class="st3" x1="3.8" y1="-83.7" x2="49" y2="-128.9"/>
			<line class="st3" x1="7.3" y1="-83.7" x2="49" y2="-125.4"/>
			<line class="st3" x1="10.8" y1="-83.7" x2="49" y2="-121.9"/>
			<line class="st3" x1="14.2" y1="-83.7" x2="49" y2="-118.5"/>
			<line class="st3" x1="17.7" y1="-83.7" x2="49" y2="-115"/>
			<line class="st3" x1="21.2" y1="-83.7" x2="49" y2="-111.5"/>
			<line class="st3" x1="24.7" y1="-83.7" x2="49" y2="-108"/>
			<line class="st3" x1="28.1" y1="-83.7" x2="49" y2="-104.6"/>
			<line class="st3" x1="31.6" y1="-83.7" x2="49" y2="-101.1"/>
			<line class="st3" x1="35.1" y1="-83.7" x2="49" y2="-97.6"/>
			<line class="st3" x1="38.6" y1="-83.7" x2="49" y2="-94.1"/>
			<line class="st3" x1="42" y1="-83.7" x2="49" y2="-90.7"/>
		</g>
	</g>
</pattern>
<g id="Layer_1">
	<rect x="20" y="5" class="st4" width="20" height="15"/>
	<g>
		<line class="st5" x1="19.4" y1="11.3" x2="1" y2="11.3"/>
		<g>
			<line class="st6" x1="18.3" y1="11.3" x2="2.1" y2="11.3"/>
			<g>
				<polygon class="st7" points="15,7.2 14.3,8 17.9,11.3 14.3,14.7 15,15.4 19.4,11.3 				"/>
			</g>
			<g>
				<polygon class="st7" points="5.4,7.2 6.1,8 2.5,11.3 6.1,14.7 5.4,15.4 1,11.3 				"/>
			</g>
		</g>
	</g>
	<rect x="10" y="35.5" class="st4" width="30" height="4"/>
	<g>
		<g>
			<line class="st8" x1="20" y1="34.9" x2="20" y2="21.1"/>
			<g>
				<line class="st6" x1="20" y1="33.9" x2="20" y2="22.1"/>
				<g>
					<polygon class="st7" points="24.1,30.5 23.4,29.9 20,33.5 16.6,29.9 15.9,30.5 20,34.9 					"/>
				</g>
				<g>
					<polygon class="st7" points="24.1,25.5 23.4,26.1 20,22.5 16.6,26.1 15.9,25.5 20,21.1 					"/>
				</g>
			</g>
		</g>
	</g>
	<rect x="114" y="5" class="st4" width="20" height="15"/>
	<g>
		<line class="st5" x1="134.7" y1="11.3" x2="152.9" y2="11.3"/>
		<g>
			<line class="st6" x1="135.8" y1="11.3" x2="151.8" y2="11.3"/>
			<g>
				<polygon class="st7" points="139.1,15.4 139.8,14.7 136.1,11.3 139.8,8 139.1,7.2 134.7,11.3 				"/>
			</g>
			<g>
				<polygon class="st7" points="148.5,15.4 147.9,14.7 151.5,11.3 147.9,8 148.5,7.2 152.9,11.3 				"/>
			</g>
		</g>
	</g>
	<rect x="114" y="20" class="st4" width="30" height="4"/>
	<g>
		<g>
			<line class="st8" x1="134" y1="24.6" x2="134" y2="39"/>
			<g>
				<line class="st6" x1="134" y1="25.7" x2="134" y2="37.9"/>
				<g>
					<polygon class="st7" points="129.9,29 130.6,29.7 134,26.1 137.4,29.7 138.1,29 134,24.6 					"/>
				</g>
				<g>
					<polygon class="st7" points="129.9,34.6 130.6,33.9 134,37.5 137.4,33.9 138.1,34.6 134,39 					"/>
				</g>
			</g>
		</g>
	</g>
	<line class="st9" x1="114" y1="39" x2="144" y2="39"/>
	<line class="st9" x1="152.9" y1="5" x2="152.9" y2="20"/>
	<line class="st9" x1="10" y1="21.1" x2="40" y2="21.1"/>
	<line class="st9" x1="1" y1="20" x2="1" y2="5"/>
</g>
<g id="Layer_2" class="st10">
	<rect x="20" y="5" class="st11" width="20" height="15"/>
	<g class="st12">
		<g>
			<line class="st13" x1="18.3" y1="11.3" x2="2.1" y2="11.3"/>
			<g>
				<polygon class="st14" points="15,7.2 14.3,8 17.9,11.3 14.3,14.7 15,15.4 19.4,11.3 				"/>
			</g>
			<g>
				<polygon class="st14" points="5.4,7.2 6.1,8 2.5,11.3 6.1,14.7 5.4,15.4 1,11.3 				"/>
			</g>
		</g>
	</g>
	<rect x="10" y="35.5" class="st11" width="30" height="4"/>
	<g class="st12">
		<g>
			<g>
				<line class="st13" x1="20" y1="33.9" x2="20" y2="22.1"/>
				<g>
					<polygon class="st14" points="24.1,30.5 23.4,29.9 20,33.5 16.6,29.9 15.9,30.5 20,34.9 					"/>
				</g>
				<g>
					<polygon class="st14" points="24.1,25.5 23.4,26.1 20,22.5 16.6,26.1 15.9,25.5 20,21.1 					"/>
				</g>
			</g>
		</g>
	</g>
	<rect x="114" y="5" class="st11" width="20" height="15"/>
	<g class="st12">
		<g>
			<line class="st13" x1="135.8" y1="11.3" x2="151.8" y2="11.3"/>
			<g>
				<polygon class="st14" points="139.1,15.4 139.8,14.7 136.1,11.3 139.8,8 139.1,7.2 134.7,11.3 				"/>
			</g>
			<g>
				<polygon class="st14" points="148.5,15.4 147.9,14.7 151.5,11.3 147.9,8 148.5,7.2 152.9,11.3 				"/>
			</g>
		</g>
	</g>
	<rect x="114" y="20" class="st11" width="30" height="4"/>
	<g class="st12">
		<g>
			<g>
				<line class="st13" x1="134" y1="25.7" x2="134" y2="37.9"/>
				<g>
					<polygon class="st14" points="129.9,29 130.6,29.7 134,26.1 137.4,29.7 138.1,29 134,24.6 					"/>
				</g>
				<g>
					<polygon class="st14" points="129.9,34.6 130.6,33.9 134,37.5 137.4,33.9 138.1,34.6 134,39 					"/>
				</g>
			</g>
		</g>
	</g>
	<line class="st11" x1="114" y1="39" x2="144" y2="39"/>
	<line class="st11" x1="152.9" y1="5" x2="152.9" y2="20"/>
	<line class="st11" x1="10" y1="21.1" x2="40" y2="21.1"/>
	<line class="st11" x1="1" y1="20" x2="1" y2="5"/>
</g>
<g id="Layer_3" class="st10">
	<g class="st12">
		<path class="st15" d="M39,1v18H1V1H39 M40,0H0v20h40V0L40,0z"/>
	</g>
	<g class="st12">
		<path class="st15" d="M153,1v18h-38V1H153 M154,0h-40v20h40V0L154,0z"/>
	</g>
	<g class="st12">
		<path class="st15" d="M39,21v18H1V21H39 M40,20H0v20h40V20L40,20z"/>
	</g>
	<g class="st12">
		<path class="st15" d="M153,21v18h-38V21H153 M154,20h-40v20h40V20L154,20z"/>
	</g>
</g>
</svg>
