<?xml version="1.0" encoding="utf-8"?>
<!-- Generator: Adobe Illustrator 19.1.1, SVG Export Plug-In . SVG Version: 6.00 Build 0)  -->
<svg version="1.0" xmlns="http://www.w3.org/2000/svg" xmlns:xlink="http://www.w3.org/1999/xlink" x="0px" y="0px" width="40px"
	 height="20px" viewBox="0 0 40 20" style="enable-background:new 0 0 40 20;" xml:space="preserve">
<style type="text/css">
	.st0{fill:#0B0B0B;}
	.st1{display:none;}
	.st2{display:inline;}
	.st3{fill:#DFDEDE;}
</style>
<g id="dark">
	<g>
		<g>
			<path class="st0" d="M27.9,9.1V7.8c-0.3-0.4-0.5-0.9-0.5-1.5c0-0.7,0.3-1.3,0.8-1.7c0.5-0.4,1.1-0.7,1.9-0.7
				c0.7,0,1.4,0.3,1.9,0.7c0.5,0.5,0.8,1,0.8,1.7c0,0.5-0.2,1-0.5,1.5v1.3c0.1-0.1,0.3-0.2,0.4-0.3c0.7-0.6,1.1-1.5,1.1-2.5
				c0-1-0.4-1.8-1.1-2.5c-0.7-0.6-1.6-1-2.5-1c-1,0-1.9,0.4-2.5,1c-0.7,0.6-1.1,1.5-1.1,2.5c0,1,0.4,1.8,1.1,2.5
				C27.6,8.9,27.7,9,27.9,9.1z"/>
			<path class="st0" d="M30,17.1c1,0,1.9-0.4,2.5-1c0.7-0.6,1.1-1.5,1.1-2.5c0-1-0.4-1.8-1.1-2.5c-0.1-0.1-0.3-0.2-0.4-0.3v1.3
				c0.3,0.4,0.5,0.9,0.5,1.5c0,0.7-0.3,1.3-0.8,1.7c-0.5,0.4-1.1,0.7-1.9,0.7c-0.7,0-1.4-0.3-1.9-0.7c-0.5-0.5-0.8-1-0.8-1.7
				c0-0.5,0.2-1,0.5-1.5v-1.3c-0.1,0.1-0.3,0.2-0.4,0.3c-0.7,0.6-1.1,1.5-1.1,2.5c0,1,0.4,1.8,1.1,2.5C28.1,16.8,29,17.1,30,17.1z"
				/>
			<rect x="33.8" y="9.6" class="st0" width="3.7" height="0.8"/>
			
				<rect x="34.3" y="12.2" transform="matrix(-0.6085 -0.7935 0.7935 -0.6085 47.2883 48.4729)" class="st0" width="2.7" height="0.8"/>
			<rect x="35.2" y="6.1" transform="matrix(0.7935 0.6085 -0.6085 0.7935 11.89 -20.1229)" class="st0" width="0.8" height="2.7"/>
			<rect x="22.5" y="9.6" class="st0" width="3.7" height="0.8"/>
			
				<rect x="24" y="11.2" transform="matrix(-0.7935 -0.6085 0.6085 -0.7935 36.1112 37.3963)" class="st0" width="0.8" height="2.7"/>
			
				<rect x="23.1" y="7.1" transform="matrix(0.6085 0.7935 -0.7935 0.6085 15.4724 -16.441)" class="st0" width="2.7" height="0.8"/>
		</g>
	</g>
	<g>
		<g>
			<path class="st0" d="M7.9,9.1V7.8C7.5,7.4,7.3,6.9,7.3,6.3c0-0.7,0.3-1.3,0.8-1.7C8.6,4.2,9.3,3.9,10,3.9c0.7,0,1.4,0.3,1.9,0.7
				c0.5,0.5,0.8,1,0.8,1.7c0,0.5-0.2,1-0.5,1.5v1.3c0.1-0.1,0.3-0.2,0.4-0.3c0.7-0.6,1.1-1.5,1.1-2.5c0-1-0.4-1.8-1.1-2.5
				c-0.7-0.6-1.6-1-2.5-1c-1,0-1.9,0.4-2.5,1C6.8,4.5,6.4,5.4,6.4,6.3c0,1,0.4,1.8,1.1,2.5C7.6,8.9,7.7,9,7.9,9.1z"/>
			<path class="st0" d="M10,17.1c1,0,1.9-0.4,2.5-1c0.7-0.6,1.1-1.5,1.1-2.5c0-1-0.4-1.8-1.1-2.5c-0.1-0.1-0.3-0.2-0.4-0.3v1.3
				c0.3,0.4,0.5,0.9,0.5,1.5c0,0.7-0.3,1.3-0.8,1.7c-0.5,0.4-1.1,0.7-1.9,0.7c-0.7,0-1.4-0.3-1.9-0.7c-0.5-0.5-0.8-1-0.8-1.7
				c0-0.5,0.2-1,0.5-1.5v-1.3c-0.1,0.1-0.3,0.2-0.4,0.3c-0.7,0.6-1.1,1.5-1.1,2.5c0,1,0.4,1.8,1.1,2.5C8.1,16.8,9,17.1,10,17.1z"/>
			<path class="st0" d="M9.5,7.3v6c0,0.3,0.2,0.5,0.5,0.5s0.5-0.2,0.5-0.5v-6c0-0.3-0.2-0.5-0.5-0.5S9.5,7,9.5,7.3z"/>
		</g>
	</g>
</g>
<g id="light" class="st1">
	<g class="st2">
		<g>
			<path class="st3" d="M27.9,9.1V7.8c-0.3-0.4-0.5-0.9-0.5-1.5c0-0.7,0.3-1.3,0.8-1.7c0.5-0.4,1.1-0.7,1.9-0.7
				c0.7,0,1.4,0.3,1.9,0.7c0.5,0.5,0.8,1,0.8,1.7c0,0.5-0.2,1-0.5,1.5v1.3c0.1-0.1,0.3-0.2,0.4-0.3c0.7-0.6,1.1-1.5,1.1-2.5
				c0-1-0.4-1.8-1.1-2.5c-0.7-0.6-1.6-1-2.5-1c-1,0-1.9,0.4-2.5,1c-0.7,0.6-1.1,1.5-1.1,2.5c0,1,0.4,1.8,1.1,2.5
				C27.6,8.9,27.7,9,27.9,9.1z"/>
			<path class="st3" d="M30,17.1c1,0,1.9-0.4,2.5-1c0.7-0.6,1.1-1.5,1.1-2.5c0-1-0.4-1.8-1.1-2.5c-0.1-0.1-0.3-0.2-0.4-0.3v1.3
				c0.3,0.4,0.5,0.9,0.5,1.5c0,0.7-0.3,1.3-0.8,1.7c-0.5,0.4-1.1,0.7-1.9,0.7c-0.7,0-1.4-0.3-1.9-0.7c-0.5-0.5-0.8-1-0.8-1.7
				c0-0.5,0.2-1,0.5-1.5v-1.3c-0.1,0.1-0.3,0.2-0.4,0.3c-0.7,0.6-1.1,1.5-1.1,2.5c0,1,0.4,1.8,1.1,2.5C28.1,16.8,29,17.1,30,17.1z"
				/>
			<rect x="33.8" y="9.6" class="st3" width="3.7" height="0.8"/>
			
				<rect x="34.3" y="12.2" transform="matrix(-0.6085 -0.7935 0.7935 -0.6085 47.2883 48.4729)" class="st3" width="2.7" height="0.8"/>
			<rect x="35.2" y="6.1" transform="matrix(0.7935 0.6085 -0.6085 0.7935 11.89 -20.1229)" class="st3" width="0.8" height="2.7"/>
			<rect x="22.5" y="9.6" class="st3" width="3.7" height="0.8"/>
			
				<rect x="24" y="11.2" transform="matrix(-0.7935 -0.6085 0.6085 -0.7935 36.1112 37.3963)" class="st3" width="0.8" height="2.7"/>
			
				<rect x="23.1" y="7.1" transform="matrix(0.6085 0.7935 -0.7935 0.6085 15.4724 -16.441)" class="st3" width="2.7" height="0.8"/>
		</g>
	</g>
	<g class="st2">
		<g>
			<path class="st3" d="M7.9,9.1V7.8C7.5,7.4,7.3,6.9,7.3,6.3c0-0.7,0.3-1.3,0.8-1.7C8.6,4.2,9.3,3.9,10,3.9c0.7,0,1.4,0.3,1.9,0.7
				c0.5,0.5,0.8,1,0.8,1.7c0,0.5-0.2,1-0.5,1.5v1.3c0.1-0.1,0.3-0.2,0.4-0.3c0.7-0.6,1.1-1.5,1.1-2.5c0-1-0.4-1.8-1.1-2.5
				c-0.7-0.6-1.6-1-2.5-1c-1,0-1.9,0.4-2.5,1C6.8,4.5,6.4,5.4,6.4,6.3c0,1,0.4,1.8,1.1,2.5C7.6,8.9,7.7,9,7.9,9.1z"/>
			<path class="st3" d="M10,17.1c1,0,1.9-0.4,2.5-1c0.7-0.6,1.1-1.5,1.1-2.5c0-1-0.4-1.8-1.1-2.5c-0.1-0.1-0.3-0.2-0.4-0.3v1.3
				c0.3,0.4,0.5,0.9,0.5,1.5c0,0.7-0.3,1.3-0.8,1.7c-0.5,0.4-1.1,0.7-1.9,0.7c-0.7,0-1.4-0.3-1.9-0.7c-0.5-0.5-0.8-1-0.8-1.7
				c0-0.5,0.2-1,0.5-1.5v-1.3c-0.1,0.1-0.3,0.2-0.4,0.3c-0.7,0.6-1.1,1.5-1.1,2.5c0,1,0.4,1.8,1.1,2.5C8.1,16.8,9,17.1,10,17.1z"/>
			<path class="st3" d="M9.5,7.3v6c0,0.3,0.2,0.5,0.5,0.5s0.5-0.2,0.5-0.5v-6c0-0.3-0.2-0.5-0.5-0.5S9.5,7,9.5,7.3z"/>
		</g>
	</g>
</g>
</svg>
